<svg width="30" height="22" viewBox="0 0 30 22" fill="none" xmlns="http://www.w3.org/2000/svg">
<g clip-path="url(#clip0_1_354)">
<path d="M22.9376 7.38594C22.9376 5.44028 26.4664 3.85686 26.4664 3.85686V0.328125C21.1731 0.328125 15.8799 7.38594 15.8799 14.4434C15.8799 18.3416 19.0397 21.5012 22.9376 21.5012C26.8355 21.5012 29.9953 18.3416 29.9953 14.4434C29.9953 10.5456 26.8355 7.38594 22.9376 7.38594Z" fill="#9966FF"/>
<path d="M7.05784 21.5012C10.9558 21.5012 14.1156 18.3416 14.1156 14.4434C14.1156 10.5456 10.9558 7.38594 7.05784 7.38594C7.05784 5.44028 10.5867 3.85686 10.5867 3.85686V0.328125C5.29344 0.328125 0.000167847 7.38594 0.000167847 14.4434C0.000167847 18.3416 3.15999 21.5012 7.05784 21.5012Z" fill="#9966FF"/>
</g>
<defs>
<clipPath id="clip0_1_354">
<rect width="29.9953" height="21.33" fill="white" transform="translate(0 0.25)"/>
</clipPath>
</defs>
</svg>
