<svg width="85" height="25" viewBox="0 0 85 25" fill="none" xmlns="http://www.w3.org/2000/svg">
<g clip-path="url(#clip0_1_390)">
<path d="M0 4.89553C0 3.0801 1.4717 1.6084 3.28714 1.6084C5.10257 1.6084 6.57427 3.0801 6.57427 4.89553V21.0364C6.57427 22.8518 5.10257 24.3235 3.28714 24.3235C1.4717 24.3235 0 22.8518 0 21.0364V4.89553Z" fill="white"/>
<path d="M26.5647 24.9199C24.219 24.9199 22.1047 24.3845 20.222 23.3138C18.37 22.2124 16.8885 20.7593 15.7774 18.9543C14.6971 17.1188 14.157 15.0996 14.157 12.897C14.157 10.6943 14.6971 8.69048 15.7774 6.8855C16.8885 5.08053 18.3855 3.64267 20.2683 2.57193C22.151 1.47059 24.2499 0.919922 26.5647 0.919922C28.9414 0.919922 31.0556 1.47059 32.9075 2.57193C34.7903 3.64267 36.2718 5.09583 37.3521 6.93139C38.4632 8.73636 39.0188 10.7249 39.0188 12.897C39.0188 15.0996 38.4632 17.1188 37.3521 18.9543C36.2718 20.7593 34.7903 22.2124 32.9075 23.3138C31.0248 24.3845 28.9105 24.9199 26.5647 24.9199ZM26.5647 18.8167C27.7067 18.8167 28.7099 18.5566 29.5741 18.0365C30.4692 17.4859 31.1636 16.7669 31.6575 15.8797C32.1822 14.9926 32.4445 14.0136 32.4445 12.9428C32.4445 11.8721 32.1822 10.8932 31.6575 10.006C31.1636 9.11877 30.4692 8.41514 29.5741 7.89506C28.7099 7.3444 27.7067 7.06906 26.5647 7.06906C25.4536 7.06906 24.4505 7.3444 23.5554 7.89506C22.6912 8.41514 21.9967 9.11877 21.472 10.006C20.9782 10.8932 20.7312 11.8721 20.7312 12.9428C20.7312 14.0136 20.9782 14.9926 21.472 15.8797C21.9967 16.7669 22.6912 17.4859 23.5554 18.0365C24.4505 18.5566 25.4536 18.8167 26.5647 18.8167Z" fill="white"/>
<path d="M57.6511 7.29852C56.4165 7.29852 55.3979 7.60444 54.5954 8.2163C53.7929 8.79756 53.2065 9.57767 52.8361 10.5566C52.4658 11.505 52.2806 12.5757 52.2806 13.7688V21.0362C52.2806 22.8516 50.8089 24.3233 48.9934 24.3233C47.178 24.3233 45.7063 22.8516 45.7063 21.0362V12.9887C45.7063 10.7861 46.1384 8.78226 47.0026 6.97729C47.8977 5.14173 49.2249 3.68857 50.9842 2.61783C52.7435 1.51649 54.9658 0.96582 57.6511 0.96582C60.3364 0.96582 62.5587 1.51649 64.318 2.61783C66.1081 3.68857 67.4508 5.12643 68.3459 6.9314C69.2409 8.73637 69.6885 10.7555 69.6885 12.9887V21.0362C69.6885 22.8517 68.2168 24.3233 66.4014 24.3233C64.5859 24.3233 63.1142 22.8516 63.1142 21.0362V13.7688C63.1142 12.6063 62.9136 11.5356 62.5123 10.5566C62.1111 9.57767 61.5092 8.79756 60.7067 8.2163C59.9351 7.60444 58.9166 7.29852 57.6511 7.29852Z" fill="white"/>
<path d="M78.4257 4.89553C78.4257 3.0801 79.8974 1.6084 81.7129 1.6084C83.5283 1.6084 85 3.0801 85 4.89553V21.0364C85 22.8518 83.5283 24.3235 81.7129 24.3235C79.8974 24.3235 78.4257 22.8518 78.4257 21.0364V4.89553Z" fill="white"/>
</g>
<defs>
<clipPath id="clip0_1_390">
<rect width="85" height="24" fill="white" transform="translate(0 0.919922)"/>
</clipPath>
</defs>
</svg>
