<svg width="53" height="55" viewBox="0 0 53 55" fill="none" xmlns="http://www.w3.org/2000/svg">
<g clip-path="url(#clip0_1_223)">
<path d="M0 30.7549C0 29.8055 0.667599 28.9868 1.59769 28.7958L50.5977 18.7335C51.8381 18.4788 53 19.4263 53 20.6926V52.2402C53 53.3448 52.1046 54.2402 51 54.2402H2C0.895429 54.2402 0 53.3448 0 52.2402V30.7549Z" fill="#F05BA6" fill-opacity="0.85"/>
<path d="M41 0.240234H12C10.8954 0.240234 10 1.13566 10 2.24023V42.2402C10 43.3448 10.8954 44.2402 12 44.2402H41C42.1046 44.2402 43 43.3448 43 42.2402V2.24023C43 1.13566 42.1046 0.240234 41 0.240234Z" fill="#9966FF" fill-opacity="0.85"/>
</g>
<defs>
<clipPath id="clip0_1_223">
<rect width="53" height="54" fill="white" transform="translate(0 0.240234)"/>
</clipPath>
</defs>
</svg>
