<svg width="64" height="57" viewBox="0 0 64 57" fill="none" xmlns="http://www.w3.org/2000/svg">
<path d="M61.7978 38.6909L36.8986 27.5482C34.1997 26.3374 29.782 26.3374 27.083 27.5482L2.20052 38.6909C-0.733506 39.9999 -0.733506 42.1417 2.20052 43.4507L26.873 54.4952C29.6886 55.7551 34.323 55.7551 37.1387 54.4952L61.8112 43.4507C64.7318 42.1417 64.7318 39.9983 61.7978 38.6909Z" fill="#F05BA6" fill-opacity="0.85"/>
<path d="M61.7978 25.8911L36.8986 14.7484C34.1997 13.5376 29.782 13.5376 27.083 14.7484L2.20052 25.8911C-0.733506 27.2 -0.733506 29.3419 2.20052 30.6508L26.873 41.6954C29.6886 42.9552 34.323 42.9552 37.1387 41.6954L61.8112 30.6508C64.7318 29.3419 64.7318 27.1984 61.7978 25.8911Z" fill="#9966FF" fill-opacity="0.85"/>
<path d="M61.7978 13.0908L36.8986 1.94814C34.1997 0.737338 29.782 0.737338 27.083 1.94814L2.20052 13.0908C-0.733506 14.3998 -0.733506 16.5416 2.20052 17.8506L26.873 28.8951C29.6886 30.155 34.323 30.155 37.1387 28.8951L61.8112 17.8506C64.7318 16.5416 64.7318 14.3982 61.7978 13.0908Z" fill="#F05BA6" fill-opacity="0.85"/>
</svg>
