<svg width="56" height="55" viewBox="0 0 56 55" fill="none" xmlns="http://www.w3.org/2000/svg">
<g clip-path="url(#clip0_1_238)">
<path d="M1.76842 0.640137H40.2316C41.2042 0.640137 42 1.49437 42 2.53844V29.1147C42 30.1588 41.2042 31.013 40.2316 31.013H20.2926L10.5221 39.413C10.2126 39.6978 9.81474 39.8401 9.41684 39.8401C9.15158 39.8401 8.88632 39.7927 8.66526 39.6503C8.04632 39.3181 7.64842 38.6537 7.64842 37.9418V31.013H1.76842C0.795789 31.013 0 30.1588 0 29.1147V2.53844C0 1.49437 0.795789 0.640137 1.76842 0.640137Z" fill="#9966FF" fill-opacity="0.85"/>
<path d="M54.2316 14.6401H15.7684C14.7958 14.6401 14 15.4944 14 16.5384V43.1147C14 44.1588 14.7958 45.013 15.7684 45.013H35.7074L45.4779 53.413C45.7874 53.6978 46.1853 53.8401 46.5832 53.8401C46.8484 53.8401 47.1137 53.7927 47.3347 53.6503C47.9537 53.3181 48.3516 52.6537 48.3516 51.9418V45.013H54.2316C55.2042 45.013 56 44.1588 56 43.1147V16.5384C56 15.4944 55.2042 14.6401 54.2316 14.6401Z" fill="#F05BA6" fill-opacity="0.85"/>
</g>
<defs>
<clipPath id="clip0_1_238">
<rect width="56" height="54" fill="white" transform="translate(0 0.240234)"/>
</clipPath>
</defs>
</svg>
