<svg width="54" height="55" viewBox="0 0 54 55" fill="none" xmlns="http://www.w3.org/2000/svg">
<g clip-path="url(#clip0_1_97)">
<path d="M1.19332 31.1299H27.1559C27.8125 31.1299 28.3496 31.6301 28.3496 32.2413V47.8006C28.3496 48.4119 27.8125 48.912 27.1559 48.912H13.6971L7.10206 53.8299C6.89316 53.9966 6.62458 54.0799 6.356 54.0799C6.17695 54.0799 5.9979 54.0522 5.84869 53.9688C5.4309 53.7743 5.16232 53.3853 5.16232 52.9686V48.912H1.19332C0.536789 48.912 -0.000366211 48.4119 -0.000366211 47.8006V32.2413C-0.000366211 31.6301 0.536789 31.1299 1.19332 31.1299Z" fill="#F05BA6" fill-opacity="0.85"/>
<path d="M1.05065 18.06L22.6302 0.464879C22.8743 0.25523 23.1681 0.125184 23.4775 0.0898558C23.7869 0.0545277 24.0991 0.115369 24.378 0.265307C24.6568 0.415245 24.8907 0.648122 25.0526 0.93687C25.2145 1.22562 25.2977 1.55838 25.2925 1.89647V11.1651C48.8138 11.1651 53.2716 28.9071 53.9977 38.396C54.016 38.7753 53.9257 39.1514 53.7392 39.4725C53.5526 39.7937 53.279 40.044 52.956 40.189C52.6331 40.3339 52.2767 40.3664 51.936 40.282C51.5953 40.1975 51.2872 40.0003 51.054 39.7175C40.6132 26.4599 25.2925 29.5189 25.2925 29.5189V38.7875C25.2935 39.1203 25.209 39.4468 25.0485 39.7302C24.888 40.0136 24.6578 40.2427 24.384 40.3915C24.1101 40.5403 23.8035 40.6031 23.4986 40.5726C23.1937 40.5421 22.9027 40.4197 22.6583 40.2191L1.05065 22.6301C0.724413 22.364 0.459643 22.0189 0.277288 21.6223C0.0949336 21.2257 0 20.7884 0 20.3451C0 19.9017 0.0949336 19.4644 0.277288 19.0678C0.459643 18.6712 0.724413 18.3262 1.05065 18.06Z" fill="#9966FF" fill-opacity="0.85"/>
</g>
<defs>
<clipPath id="clip0_1_97">
<rect width="54" height="54" fill="white" transform="translate(0 0.0800781)"/>
</clipPath>
</defs>
</svg>
