<svg width="52" height="54" viewBox="0 0 52 54" fill="none" xmlns="http://www.w3.org/2000/svg">
<g clip-path="url(#clip0_1_178)">
<path d="M25 0.0800781H2C0.89543 0.0800781 0 0.975509 0 2.08008V25.0801C0 26.1846 0.89543 27.0801 2 27.0801H25C26.1046 27.0801 27 26.1846 27 25.0801V2.08008C27 0.975509 26.1046 0.0800781 25 0.0800781Z" fill="#9966FF" fill-opacity="0.85"/>
<path d="M28.5 42.0801C35.9558 42.0801 42 36.0359 42 28.5801C42 21.1242 35.9558 15.0801 28.5 15.0801C21.0442 15.0801 15 21.1242 15 28.5801C15 36.0359 21.0442 42.0801 28.5 42.0801Z" stroke="#F05BA6" stroke-opacity="0.85" stroke-width="20" stroke-linecap="round" stroke-linejoin="round"/>
</g>
<defs>
<clipPath id="clip0_1_178">
<rect width="52" height="53" fill="white" transform="translate(0 0.0800781)"/>
</clipPath>
</defs>
</svg>
