<svg width="51" height="54" viewBox="0 0 51 54" fill="none" xmlns="http://www.w3.org/2000/svg">
<g clip-path="url(#clip0_1_146)">
<path d="M0 30.2892C0 29.3413 0.665497 28.5235 1.5937 28.3309L48.5937 18.5795C49.8352 18.3219 51 19.2698 51 20.5378V51.0802C51 52.1848 50.1046 53.0802 49 53.0802H2C0.89543 53.0802 0 52.1848 0 51.0802V30.2892Z" fill="#F05BA6" fill-opacity="0.85"/>
<path d="M40 0.0800781H11C9.89543 0.0800781 9 0.975509 9 2.08008V42.0801C9 43.1846 9.89543 44.0801 11 44.0801H40C41.1046 44.0801 42 43.1846 42 42.0801V2.08008C42 0.975509 41.1046 0.0800781 40 0.0800781Z" fill="#9966FF" fill-opacity="0.85"/>
</g>
<defs>
<clipPath id="clip0_1_146">
<rect width="51" height="53" fill="white" transform="translate(0 0.0800781)"/>
</clipPath>
</defs>
</svg>
