<svg width="54" height="54" viewBox="0 0 54 54" fill="none" xmlns="http://www.w3.org/2000/svg">
<g clip-path="url(#clip0_1_113)">
<path d="M27 35.0801C36.9411 35.0801 45 27.2451 45 17.5801C45 7.9151 36.9411 0.0800781 27 0.0800781C17.0589 0.0800781 9 7.9151 9 17.5801C9 27.2451 17.0589 35.0801 27 35.0801Z" fill="#F05BA6" fill-opacity="0.85"/>
<path d="M0 9.81497C0 9.04451 0.834614 8.56347 1.50128 8.94969L27 23.7217V53.08L0.997442 38.0161C0.380082 37.6585 0 36.999 0 36.2856V9.81497Z" fill="#9966FF" fill-opacity="0.85"/>
<path d="M54 9.81497C54 9.04451 53.1654 8.56347 52.4987 8.94969L27 23.7217V53.08L53.0026 38.0161C53.6199 37.6585 54 36.999 54 36.2856V9.81497Z" fill="#9966FF" fill-opacity="0.85"/>
</g>
<defs>
<clipPath id="clip0_1_113">
<rect width="54" height="53" fill="white" transform="translate(0 0.0800781)"/>
</clipPath>
</defs>
</svg>
