<svg width="56" height="54" viewBox="0 0 56 54" fill="none" xmlns="http://www.w3.org/2000/svg">
<g clip-path="url(#clip0_1_130)">
<path d="M27 24.0801H2C0.89543 24.0801 0 24.9755 0 26.0801V51.0801C0 52.1846 0.89543 53.0801 2 53.0801H27C28.1046 53.0801 29 52.1846 29 51.0801V26.0801C29 24.9755 28.1046 24.0801 27 24.0801Z" fill="#9966FF" fill-opacity="0.85"/>
<path fill-rule="evenodd" clip-rule="evenodd" d="M31.5061 21.4383C33.2038 23.136 33.2038 25.8885 31.5061 27.5862C29.8084 29.2839 27.0559 29.2839 25.3582 27.5862C23.6605 25.8885 23.6605 23.136 25.3582 21.4383C27.0559 19.7406 29.8084 19.7406 31.5061 21.4383ZM49.872 36.0636C54.8458 26.8406 53.4379 15.0858 45.6483 7.29617C36.1401 -2.21201 20.7243 -2.21201 11.2161 7.29617C1.70791 16.8043 1.70792 32.2202 11.2161 41.7283C19.4379 49.9502 32.077 51.0625 41.494 45.0653L46.5086 50.0799C46.8991 50.4704 47.5323 50.4704 47.9228 50.0799L55.1985 42.8042C55.589 42.4137 55.589 41.7806 55.1985 41.39L49.872 36.0636Z" fill="#F05BA6" fill-opacity="0.85"/>
</g>
<defs>
<clipPath id="clip0_1_130">
<rect width="56" height="53" fill="white" transform="translate(0 0.0800781)"/>
</clipPath>
</defs>
</svg>
