<svg width="18" height="28" viewBox="0 0 18 28" fill="none" xmlns="http://www.w3.org/2000/svg">
<path d="M1.16326 0.192018H16.8367C17.1333 0.185675 17.3789 0.423927 17.3855 0.724348V1.45239C17.3789 1.75281 17.1333 1.99106 16.8367 1.98472H1.16326C0.866662 1.99106 0.621072 1.75281 0.614532 1.45239V0.724348C0.621072 0.423926 0.866662 0.185674 1.16326 0.192018Z" fill="#F0CD0A"/>
<path d="M1.74289 1.98471H16.2571V11.3318C16.2571 11.6919 15.9479 11.825 15.6543 11.9972L8.98453 15.8331L2.34572 11.9972C2.05203 11.825 1.74289 11.6919 1.74289 11.3318V1.98471Z" fill="#C75C5C"/>
<path d="M1.74289 1.98471H5.6458V13.9073L2.34572 11.9972C2.05203 11.825 1.74289 11.6919 1.74289 11.3318V1.98471ZM12.3542 1.98471H16.2571V11.3318C16.2571 11.6919 15.9479 11.825 15.6543 11.9972L12.3542 13.8995V1.98471Z" fill="#4F5D73"/>
<path d="M8.99999 27.975C13.9043 27.975 17.8801 23.9478 17.8801 18.9801C17.8801 14.0124 13.9043 9.98532 8.99999 9.98532C4.09565 9.98532 0.119904 14.0124 0.119904 18.9801C0.119904 23.9478 4.09565 27.975 8.99999 27.975Z" fill="#F0CD0A"/>
<path d="M8.99998 26.7381C13.2299 26.7381 16.659 23.2647 16.659 18.9802C16.659 14.6956 13.2299 11.2222 8.99998 11.2222C4.77004 11.2222 1.341 14.6956 1.341 18.9802C1.341 23.2647 4.77004 26.7381 8.99998 26.7381Z" fill="#D2B309"/>
<path d="M8.99998 26.4876C13.0933 26.4876 16.4116 23.1264 16.4116 18.9801C16.4116 14.8339 13.0933 11.4727 8.99998 11.4727C4.90663 11.4727 1.58832 14.8339 1.58832 18.9801C1.58832 23.1264 4.90663 26.4876 8.99998 26.4876Z" fill="#E3C101"/>
<path d="M7.6243 17.4849C7.33835 17.4849 7.09876 17.5084 6.8128 17.5006C6.29779 17.5038 5.78372 17.5457 5.27482 17.6258C5.17283 17.6498 5.07595 17.6922 4.98887 17.7511C4.89807 17.807 4.83808 17.9025 4.82657 18.0094V18.0877C4.85885 18.2625 4.94233 18.4235 5.06615 18.5496L6.84372 19.9352L6.51139 21.0625C6.45729 21.2504 6.40319 21.4304 6.34909 21.6262C6.25626 21.8842 6.21425 22.1581 6.22543 22.4325C6.21802 22.6525 6.38695 22.8376 6.60413 22.8474C6.84073 22.8312 7.0658 22.7378 7.2456 22.5812C7.43881 22.456 7.60884 22.3307 7.79433 22.1976L8.46671 21.7279C8.51387 21.6938 8.5629 21.6625 8.61355 21.634C8.96906 21.3835 8.79904 21.3835 9.29366 21.7123C9.61053 21.9236 10.6616 22.6908 10.8007 22.7534C11.1949 22.9257 11.5659 22.8552 11.5659 22.4168C11.56 22.0546 11.4893 21.6966 11.3572 21.36L10.9398 19.9352C11.0221 19.8549 11.1128 19.784 11.2103 19.7238L12.5628 18.667C12.8 18.5302 12.9494 18.2779 12.957 18.0016C12.9372 17.8999 12.879 17.81 12.7947 17.7511C12.5087 17.5397 12.0682 17.5945 11.7668 17.5397C11.6586 17.5162 10.252 17.4849 10.1515 17.4849C10.1438 17.4066 9.95831 16.9213 9.91194 16.7882L9.40186 15.4104C8.99997 14.5884 8.49762 15.0033 8.2503 15.7392L7.6243 17.4849Z" fill="#FFF2B5"/>
<path d="M11.0867 12.6313C13.9299 13.3165 15.9603 15.8561 16.0311 18.8155C16.1018 21.775 14.1952 24.4112 11.3881 25.235C13.1116 23.9042 14.2477 21.6261 14.2477 19.0428C14.2477 16.3185 12.9802 13.9308 11.0867 12.6313Z" fill="white" fill-opacity="0.2"/>
<path d="M1.74298 1.98468H16.257V2.564H1.74298V1.98468Z" fill="#1A1A1A" fill-opacity="0.14902"/>
<path d="M9 9.98534C11.2292 9.98248 13.3773 10.8322 15.0147 12.3644L15.3529 12.1695C13.6839 10.4258 11.3894 9.44028 8.99168 9.43732C6.59399 9.43437 4.29713 10.4142 2.62396 12.1538L2.98678 12.363C4.62401 10.8316 6.7715 9.98247 9 9.98534Z" fill="#1A1A1A" fill-opacity="0.101961"/>
</svg>
