<svg width="21" height="29" viewBox="0 0 21 29" fill="none" xmlns="http://www.w3.org/2000/svg">
<path d="M4.33017 17.3394L0.327524 25.8754C0.20221 26.1334 0.334895 26.2956 0.755062 26.2145L4.0132 25.5068C4.07769 25.4842 4.14871 25.4897 4.20897 25.5219C4.26924 25.5541 4.31321 25.6102 4.33017 25.6764L5.79707 28.6839C5.93713 29.0082 6.0993 29.0746 6.22461 28.8166L10.4853 19.8825L4.33017 17.3394Z" fill="#DE7818"/>
<path d="M16.6699 17.3394L20.6725 25.8754C20.8052 26.1334 20.6651 26.2956 20.245 26.2145L16.9868 25.5068C16.9223 25.485 16.8517 25.4909 16.7916 25.523C16.7316 25.5551 16.6875 25.6106 16.6699 25.6764L15.203 28.6839C15.0629 29.0083 14.9081 29.0746 14.7754 28.8166L10.5148 19.8825L16.6699 17.3394Z" fill="#DE7818"/>
<path d="M9.29848 22.3667C9.29848 22.374 9.28374 22.3667 9.269 22.3667C7.03547 22.1191 4.94145 21.1574 3.29819 19.6245C3.29082 19.6172 3.26871 19.6098 3.27608 19.6024L3.46036 19.2117C3.46774 19.197 3.48248 19.2338 3.48985 19.2412C5.06732 20.7081 7.25662 21.6295 9.49751 21.9023C9.50488 21.9023 9.51962 21.9023 9.51962 21.9096L9.29848 22.3667Z" fill="#B35454"/>
<path d="M10.5 21.9539C16.2932 21.9539 20.9894 17.2576 20.9894 11.4644C20.9894 5.67126 16.2932 0.974976 10.5 0.974976C4.70684 0.974976 0.0105591 5.67126 0.0105591 11.4644C0.0105591 17.2576 4.70684 21.9539 10.5 21.9539Z" fill="#F0CD0A"/>
<path d="M10.5 20.5091C15.4952 20.5091 19.5446 16.4597 19.5446 11.4644C19.5446 6.4692 15.4952 2.41977 10.5 2.41977C5.50475 2.41977 1.45532 6.4692 1.45532 11.4644C1.45532 16.4597 5.50475 20.5091 10.5 20.5091Z" fill="#D2B309"/>
<path d="M10.7498 20.4746C15.5822 20.4746 19.4996 16.5572 19.4996 11.7248C19.4996 6.8924 15.5822 2.97498 10.7498 2.97498C5.91742 2.97498 2 6.8924 2 11.7248C2 16.5572 5.91742 20.4746 10.7498 20.4746Z" fill="#E3C101"/>
<path fill-rule="evenodd" clip-rule="evenodd" d="M10.4504 15.73H12.6008V7.27496H10.4504L8.29999 8.73981V10.5914L10.3391 9.21442H10.4504V15.73Z" fill="#FFF2B5"/>
<path d="M12.9694 4.06357C16.3262 4.86497 18.7223 7.82649 18.8053 11.2766C18.8884 14.7267 16.6376 17.8001 13.3232 18.7621C15.3577 17.2067 16.7067 14.553 16.7067 11.5381C16.7067 8.3537 15.2029 5.5747 12.9694 4.06357Z" fill="white" fill-opacity="0.2"/>
<path d="M11.7016 22.3667C11.7089 22.374 11.7237 22.3667 11.731 22.3667C14.0235 22.0792 16.1317 21.1578 17.7166 19.6393C17.724 19.6319 17.7461 19.6245 17.7387 19.6172L17.5544 19.2265C17.547 19.2117 17.5323 19.2486 17.5249 19.256C15.9475 20.7229 13.7508 21.6295 11.5025 21.9023C11.4951 21.9023 11.4804 21.9023 11.4804 21.9096L11.7016 22.3667Z" fill="#B35454"/>
</svg>
