<svg width="20" height="20" viewBox="0 0 20 20" fill="none" xmlns="http://www.w3.org/2000/svg">
<path d="M6.76 18.8799V10.7799H9.84L10.3 7.61988H6.76V5.59988C6.76 5.09322 6.87333 4.71988 7.1 4.47988C7.36667 4.19988 7.84667 4.05988 8.54 4.05988H10.42V1.23988C10.2067 1.21322 9.87333 1.18655 9.42 1.15988C8.83333 1.13322 8.24667 1.11988 7.66 1.11988C6.75333 1.11988 5.95333 1.27988 5.26 1.59988C4.56667 1.91988 4.03 2.39322 3.65 3.01988C3.27 3.64655 3.08 4.39988 3.08 5.27988V7.61988H0V10.7799H3.08V18.8799H6.76Z" fill="#9966FF"/>
</svg>
