<svg width="20" height="20" viewBox="0 0 20 20" fill="none" xmlns="http://www.w3.org/2000/svg">
<path d="M0 3.19961C0 2.58628 0.206667 2.08628 0.62 1.69961C1.03333 1.31294 1.58667 1.11961 2.28 1.11961C2.97333 1.11961 3.52667 1.31628 3.94 1.70961C4.35333 2.10294 4.56 2.61961 4.56 3.25961C4.56 3.83294 4.34667 4.31628 3.92 4.70961C3.49333 5.10294 2.94 5.29961 2.26 5.29961H2.24C1.56 5.29961 1.01667 5.09961 0.61 4.69961C0.203333 4.29961 0 3.79961 0 3.19961ZM0.24 19.0996V6.95961H4.28V19.0996H0.24ZM6.52 19.0996H10.58V12.3196C10.58 11.8929 10.6267 11.5663 10.72 11.3396C10.88 10.9263 11.14 10.5763 11.5 10.2896C11.86 10.0029 12.2933 9.85961 12.8 9.85961C14.16 9.85961 14.84 10.7796 14.84 12.6196V19.0996H18.88V12.1396C18.88 10.3263 18.4567 8.96294 17.61 8.04961C16.7633 7.13628 15.64 6.67961 14.24 6.67961C12.6533 6.67961 11.4333 7.34628 10.58 8.67961V8.71961H10.56L10.58 8.67961V6.95961H6.52C6.54667 7.46628 6.56 8.67294 6.56 10.5796C6.56 11.6063 6.55333 13.6263 6.54 16.6396L6.52 19.0996Z" fill="#9966FF"/>
</svg>
