<svg width="18" height="19" viewBox="0 0 18 19" fill="none" xmlns="http://www.w3.org/2000/svg">
<g clip-path="url(#clip0_1_538)">
<path d="M6.04682 12.74C5.84282 12.74 5.67482 12.668 5.54282 12.524L0.502818 7.48401C0.346818 7.35201 0.280818 7.18401 0.304818 6.98001C0.304818 6.80001 0.370818 6.63201 0.502818 6.47601C0.646818 6.35601 0.820818 6.29001 1.02482 6.27801C1.22882 6.26601 1.39082 6.33201 1.51082 6.47601L6.04682 10.994L10.5828 6.47601C10.7148 6.33201 10.8798 6.26601 11.0778 6.27801C11.2758 6.29001 11.4408 6.36201 11.5728 6.49401C11.7048 6.62601 11.7768 6.79101 11.7888 6.98901C11.8008 7.18701 11.7348 7.35201 11.5908 7.48401L6.55082 12.524C6.43082 12.668 6.26282 12.74 6.04682 12.74Z" fill="#0A2540"/>
</g>
<defs>
<clipPath id="clip0_1_538">
<rect width="17.28" height="18" fill="white" transform="matrix(1 0 0 -1 0.300018 18.5)"/>
</clipPath>
</defs>
</svg>
