<svg width="26" height="27" viewBox="0 0 26 27" fill="none" xmlns="http://www.w3.org/2000/svg">
<g clip-path="url(#clip0_1_374)">
<path d="M10.353 23.1182C10.0757 23.1182 9.833 23.0142 9.625 22.8062L0.837002 14.0182C0.629002 13.8102 0.525002 13.5632 0.525002 13.2772C0.525002 12.9912 0.629002 12.7442 0.837002 12.5362L9.625 3.74816C9.729 3.64416 9.846 3.56616 9.976 3.51416C10.106 3.46216 10.2403 3.43616 10.379 3.43616C10.5177 3.43616 10.652 3.46216 10.782 3.51416C10.912 3.56616 11.0247 3.63983 11.12 3.73516C11.2153 3.8305 11.289 3.9475 11.341 4.08616C11.393 4.19016 11.419 4.32016 11.419 4.47616C11.419 4.63216 11.393 4.76216 11.341 4.86616C11.2717 5.02216 11.1937 5.13483 11.107 5.20416L3.047 13.2902L11.107 21.3502C11.2457 21.4888 11.3367 21.6622 11.38 21.8702C11.4233 22.0782 11.406 22.2818 11.328 22.4812C11.25 22.6805 11.1243 22.8365 10.951 22.9492C10.7777 23.0618 10.5783 23.1182 10.353 23.1182ZM20.285 14.3302H1.565C1.28767 14.3302 1.045 14.2262 0.837002 14.0182C0.629002 13.8102 0.525002 13.5632 0.525002 13.2772C0.525002 12.9912 0.624668 12.7485 0.824002 12.5492C1.02333 12.3498 1.27033 12.2502 1.565 12.2502H20.285C20.5797 12.2502 20.8267 12.3498 21.026 12.5492C21.2253 12.7485 21.325 12.9912 21.325 13.2772C21.325 13.5632 21.221 13.8102 21.013 14.0182C20.805 14.2262 20.5623 14.3302 20.285 14.3302Z" fill="white"/>
</g>
<defs>
<clipPath id="clip0_1_374">
<rect width="24.97" height="26" fill="white" transform="matrix(1 0 0 -1 0.520004 26.4199)"/>
</clipPath>
</defs>
</svg>
