<svg width="20" height="20" viewBox="0 0 20 20" fill="none" xmlns="http://www.w3.org/2000/svg">
<g clip-path="url(#clip0_1_445)">
<path d="M13.36 2.21973H14.3L14.64 2.27973L14.78 2.31973C15.0067 2.37306 15.1667 2.41973 15.26 2.45973C15.46 2.53973 15.6467 2.62306 15.82 2.70973C15.9933 2.79639 16.1467 2.89306 16.28 2.99973C16.3733 3.06639 16.5 3.16639 16.66 3.29973C16.7667 3.40639 16.94 3.43973 17.18 3.39973L17.94 3.17973L18.12 3.11973C18.4 3.01306 18.6067 2.92639 18.74 2.85973C19.0067 2.73973 19.1667 2.65973 19.22 2.61973L19.32 2.57973V2.55973H19.34L19.36 2.53973H19.38L19.42 2.49973H19.44V2.55973L19.42 2.57973V2.61973H19.4V2.63973L19.38 2.67973C19.38 2.70639 19.3767 2.72973 19.37 2.74973C19.3633 2.76973 19.31 2.87973 19.21 3.07973C19.11 3.27973 18.9733 3.49973 18.8 3.73973C18.6933 3.87306 18.5467 4.03306 18.36 4.21973C18.2667 4.28639 18.1833 4.35639 18.11 4.42973C18.0367 4.50306 17.98 4.54639 17.94 4.55973L17.84 4.63973H17.82V4.65973H17.8L17.78 4.67973H17.76V4.69973H17.74V4.71973H17.72H17.82L18.32 4.59973C18.6667 4.53306 18.9867 4.45306 19.28 4.35973L19.78 4.19973L19.86 4.15973H19.88L19.9 4.13973H19.92L19.96 4.11973H20V4.15973H19.98V4.17973H19.96V4.19973H19.94V4.21973H19.92V4.23973C19.92 4.25306 19.84 4.35973 19.68 4.55973L19.56 4.71973C19.4933 4.81306 19.4533 4.85973 19.44 4.85973C19.4267 4.85973 19.42 4.86639 19.42 4.87973L19.4 4.89973C19.3733 4.93973 19.24 5.07306 19 5.29973C18.84 5.47306 18.6133 5.67973 18.32 5.91973C18.0933 6.10639 17.98 6.32639 17.98 6.57973C17.98 6.72639 17.9667 6.98639 17.94 7.35973V7.47973C17.9267 7.66639 17.8867 7.96639 17.82 8.37973L17.8 8.55973C17.7333 8.95973 17.6333 9.38973 17.5 9.84973C17.3667 10.3097 17.1933 10.7864 16.98 11.2797C16.82 11.6931 16.6133 12.1064 16.36 12.5197C16.1733 12.8664 15.98 13.1797 15.78 13.4597L15.22 14.1797C15.0467 14.3931 14.8133 14.6464 14.52 14.9397L14.04 15.3997L13.7 15.6797C13.58 15.7731 13.4 15.9131 13.16 16.0997L12.84 16.3197C12.6267 16.4664 12.4733 16.5664 12.38 16.6197L11.66 16.9997C11.3133 17.1731 11.0067 17.3064 10.74 17.3997C10.58 17.4664 10.32 17.5597 9.96 17.6797L9.72 17.7597C9.34667 17.8664 9 17.9464 8.68 17.9997C8.25333 18.0797 7.87333 18.1331 7.54 18.1597L6.9 18.2197H5.72L5.56 18.1997C5.44 18.1997 5.36 18.1931 5.32 18.1797L4.56 18.0997C4.14667 18.0331 3.80667 17.9731 3.54 17.9197C3.40667 17.8931 3.13333 17.8064 2.72 17.6597L2.44 17.5797C1.85333 17.3664 1.44 17.1997 1.2 17.0797C0.826667 16.8931 0.606667 16.7864 0.54 16.7597L0.42 16.6797C0.353333 16.6397 0.3 16.6064 0.26 16.5797L0.1 16.4797H0.08L0.06 16.4597H0.04V16.4397H0.02V16.4197H0V16.3997H0.12C0.146667 16.4131 0.22 16.4197 0.34 16.4197L0.56 16.4397H1.32C1.69333 16.4131 1.97333 16.3864 2.16 16.3597C2.4 16.3197 2.73333 16.2464 3.16 16.1397C3.56 16.0331 3.91333 15.9131 4.22 15.7797L4.9 15.4797C5.07333 15.3864 5.28 15.2597 5.52 15.0997L5.94 14.8197V14.7997H5.96L5.98 14.7797H6V14.7597L6.02 14.7397L5.88 14.7197C5.76 14.7197 5.66667 14.7131 5.6 14.6997C5.48 14.6997 5.34 14.6731 5.18 14.6197C5.07333 14.5931 4.9 14.5397 4.66 14.4597L4.56 14.4197C4.41333 14.3531 4.19333 14.2397 3.9 14.0797L3.76 13.9797C3.6 13.8731 3.49333 13.7931 3.44 13.7397L3.08 13.3797C3.01333 13.3131 2.91333 13.1931 2.78 13.0197L2.7 12.8997C2.60667 12.7531 2.50667 12.5597 2.4 12.3197L2.24 11.9997V11.9797L2.22 11.9597V11.9197H2.28L2.48 11.9597C2.56 11.9731 2.76667 11.9797 3.1 11.9797L3.4 11.9597C3.54667 11.9597 3.64 11.9531 3.68 11.9397L3.92 11.8997L3.96 11.8797H4V11.8597H4.02L3.98 11.8397H3.96L3.92 11.8197H3.84C3.82667 11.8064 3.80667 11.7997 3.78 11.7997L3.72 11.7797C3.62667 11.7397 3.46 11.6731 3.22 11.5797C2.94 11.4464 2.73333 11.3397 2.6 11.2597C2.49333 11.1797 2.34667 11.0597 2.16 10.8997C2.06667 10.8197 1.92 10.6664 1.72 10.4397L1.68 10.3997C1.48 10.1464 1.33333 9.91306 1.24 9.69973C1.10667 9.44639 1.00667 9.19306 0.94 8.93973C0.86 8.61973 0.813333 8.37306 0.8 8.19973L0.78 7.83973H0.82L0.84 7.85973H0.86L0.88 7.87973L1.16 7.99973C1.41333 8.10639 1.64667 8.17973 1.86 8.21973L2.36 8.31973H2.6H2.58V8.29973H2.56V8.27973H2.54L2.52 8.25973H2.5L2.32 8.11973C2.25333 8.06639 2.14667 7.96639 2 7.81973L1.68 7.45973C1.62667 7.39306 1.56 7.29973 1.48 7.17973L1.38 7.03973C1.31333 6.89306 1.22667 6.69973 1.12 6.45973C1.01333 6.16639 0.946667 5.93973 0.92 5.77973C0.866667 5.57973 0.84 5.35306 0.84 5.09973C0.826667 4.99306 0.826667 4.85306 0.84 4.67973V4.51973C0.866667 4.35973 0.906667 4.17973 0.96 3.97973L0.98 3.91973C1.06 3.66639 1.13333 3.47306 1.2 3.33973L1.34 2.99973L1.36 2.97973V2.93973H1.4V2.95973H1.42V2.97973L1.44 2.99973V3.01973L1.68 3.27973C1.78667 3.39973 1.98 3.59973 2.26 3.87973C2.46 4.07973 2.58667 4.19306 2.64 4.21973C2.65333 4.21973 2.66667 4.23306 2.68 4.25973L2.72 4.29973C2.76 4.33973 2.88 4.43973 3.08 4.59973C3.18667 4.69306 3.39333 4.84639 3.7 5.05973L3.88 5.17973C4.25333 5.41973 4.62 5.63973 4.98 5.83973C5.54 6.10639 5.97333 6.29973 6.28 6.41973L6.38 6.45973C6.86 6.61973 7.15333 6.71306 7.26 6.73973C7.48667 6.81973 7.80667 6.89306 8.22 6.95973C8.40667 6.99973 8.64667 7.03973 8.94 7.07973L9.24 7.11973L9.7 7.15973H9.82V7.09973L9.78 6.87973C9.75333 6.69306 9.74 6.48639 9.74 6.25973C9.74 5.96639 9.76333 5.71973 9.81 5.51973C9.85667 5.31973 9.92 5.09973 10 4.85973C10.08 4.61973 10.16 4.42639 10.24 4.27973C10.2933 4.18639 10.4 4.03639 10.56 3.82973C10.72 3.62306 10.8933 3.43306 11.08 3.25973C11.3467 3.04639 11.5867 2.87973 11.8 2.75973C12.04 2.62639 12.2867 2.51306 12.54 2.41973C12.7933 2.32639 12.9867 2.27306 13.12 2.25973L13.36 2.21973Z" fill="#9966FF"/>
</g>
<defs>
<clipPath id="clip0_1_445">
<rect width="20" height="20" fill="white" transform="matrix(1 0 0 -1 0 20)"/>
</clipPath>
</defs>
</svg>
