<svg width="19" height="19" viewBox="0 0 19 19" fill="none" xmlns="http://www.w3.org/2000/svg">
<g clip-path="url(#clip0_1_31)">
<path d="M8.32598 16.556C8.16998 16.556 8.03198 16.517 7.91198 16.439C7.79198 16.361 7.70498 16.253 7.65098 16.115C7.59698 15.977 7.58498 15.836 7.61498 15.692C7.64498 15.548 7.70798 15.428 7.80398 15.332L13.384 9.73403L7.80398 4.15403C7.73198 4.08203 7.67798 4.00103 7.64198 3.91103C7.60598 3.82103 7.58798 3.72803 7.58798 3.63203C7.58798 3.53603 7.60598 3.44603 7.64198 3.36203C7.67798 3.27803 7.73198 3.20003 7.80398 3.12803C7.87598 3.05603 7.95698 3.00203 8.04698 2.96603C8.13698 2.93003 8.22098 2.91203 8.29898 2.91203C8.37698 2.91203 8.47598 2.93603 8.59598 2.98403C8.67998 3.02003 8.75798 3.07403 8.82998 3.14603L14.914 9.23003C15.058 9.37403 15.13 9.54503 15.13 9.74303C15.13 9.94103 15.058 10.112 14.914 10.256L8.82998 16.34C8.68598 16.484 8.51798 16.556 8.32598 16.556ZM14.41 10.454H1.44998C1.24598 10.454 1.07498 10.385 0.93698 10.247C0.79898 10.109 0.72998 9.94103 0.72998 9.74303C0.72998 9.54503 0.80198 9.37403 0.94598 9.23003C1.08998 9.08603 1.25798 9.01403 1.44998 9.01403H14.41C14.602 9.01403 14.77 9.08603 14.914 9.23003C15.058 9.37403 15.13 9.54503 15.13 9.74303C15.13 9.94103 15.061 10.109 14.923 10.247C14.785 10.385 14.614 10.454 14.41 10.454Z" fill="#9966FF"/>
</g>
<defs>
<clipPath id="clip0_1_31">
<rect width="17.28" height="18" fill="white" transform="matrix(1 0 0 -1 0.72998 18.77)"/>
</clipPath>
</defs>
</svg>
