<svg width="19" height="19" viewBox="0 0 19 19" fill="none" xmlns="http://www.w3.org/2000/svg">
<g clip-path="url(#clip0_1_108)">
<path d="M8.32601 15.8662C8.17001 15.8662 8.03201 15.8272 7.91201 15.7492C7.79201 15.6712 7.70501 15.5632 7.65101 15.4252C7.59701 15.2872 7.58501 15.1462 7.61501 15.0022C7.64501 14.8582 7.70801 14.7382 7.80401 14.6422L13.384 9.04421L7.80401 3.46421C7.73201 3.39221 7.67801 3.31121 7.64201 3.22121C7.60601 3.13121 7.58801 3.03821 7.58801 2.94221C7.58801 2.84621 7.60601 2.75621 7.64201 2.67221C7.67801 2.58821 7.73201 2.51021 7.80401 2.43821C7.87601 2.36621 7.95701 2.31221 8.04701 2.27621C8.13701 2.24021 8.22101 2.22221 8.29901 2.22221C8.37701 2.22221 8.47601 2.24621 8.59601 2.29421C8.68001 2.33021 8.75801 2.38421 8.83001 2.45621L14.914 8.54021C15.058 8.68421 15.13 8.85521 15.13 9.05321C15.13 9.25121 15.058 9.42221 14.914 9.56621L8.83001 15.6502C8.68601 15.7942 8.51801 15.8662 8.32601 15.8662ZM14.41 9.76421H1.45001C1.24601 9.76421 1.07501 9.69521 0.937011 9.55721C0.799011 9.41921 0.730011 9.25121 0.730011 9.05321C0.730011 8.85521 0.802011 8.68421 0.946011 8.54021C1.09001 8.39621 1.25801 8.32421 1.45001 8.32421H14.41C14.602 8.32421 14.77 8.39621 14.914 8.54021C15.058 8.68421 15.13 8.85521 15.13 9.05321C15.13 9.25121 15.061 9.41921 14.923 9.55721C14.785 9.69521 14.614 9.76421 14.41 9.76421Z" fill="#9966FF"/>
</g>
<defs>
<clipPath id="clip0_1_108">
<rect width="17.28" height="18" fill="white" transform="matrix(1 0 0 -1 0.730011 18.0801)"/>
</clipPath>
</defs>
</svg>
