<svg width="26" height="27" viewBox="0 0 26 27" fill="none" xmlns="http://www.w3.org/2000/svg">
<g clip-path="url(#clip0_1_378)">
<path d="M11.497 23.2217C11.2717 23.2217 11.0724 23.1653 10.899 23.0527C10.7257 22.94 10.6 22.784 10.522 22.5847C10.444 22.3853 10.4267 22.1817 10.47 21.9737C10.5134 21.7657 10.6044 21.5923 10.743 21.4537L18.803 13.3677L10.743 5.30768C10.639 5.20368 10.561 5.08668 10.509 4.95668C10.457 4.82668 10.431 4.69235 10.431 4.55368C10.431 4.41501 10.457 4.28501 10.509 4.16368C10.561 4.04235 10.639 3.92968 10.743 3.82568C10.847 3.72168 10.964 3.64368 11.094 3.59168C11.224 3.53968 11.3454 3.51368 11.458 3.51368C11.5707 3.51368 11.7137 3.54835 11.887 3.61768C12.0084 3.66968 12.121 3.74768 12.225 3.85168L21.013 12.6397C21.221 12.8477 21.325 13.0947 21.325 13.3807C21.325 13.6667 21.221 13.9137 21.013 14.1217L12.225 22.9097C12.017 23.1177 11.7744 23.2217 11.497 23.2217ZM20.285 14.4077H1.56502C1.27036 14.4077 1.02336 14.308 0.824024 14.1087C0.624691 13.9093 0.525024 13.6667 0.525024 13.3807C0.525024 13.0947 0.629024 12.8477 0.837024 12.6397C1.04502 12.4317 1.28769 12.3277 1.56502 12.3277H20.285C20.5624 12.3277 20.805 12.4317 21.013 12.6397C21.221 12.8477 21.325 13.0947 21.325 13.3807C21.325 13.6667 21.2254 13.9093 21.026 14.1087C20.8267 14.308 20.5797 14.4077 20.285 14.4077Z" fill="white"/>
</g>
<defs>
<clipPath id="clip0_1_378">
<rect width="24.97" height="26" fill="white" transform="matrix(1 0 0 -1 0.52002 26.4199)"/>
</clipPath>
</defs>
</svg>
