<svg width="19" height="19" viewBox="0 0 19 19" fill="none" xmlns="http://www.w3.org/2000/svg">
<g clip-path="url(#clip0_1_18)">
<path d="M8.326 16.766C8.17 16.766 8.032 16.727 7.912 16.649C7.792 16.571 7.705 16.463 7.651 16.325C7.597 16.187 7.585 16.046 7.615 15.902C7.645 15.758 7.708 15.638 7.804 15.542L13.384 9.94399L7.804 4.36399C7.732 4.29199 7.678 4.21099 7.642 4.12099C7.606 4.03099 7.588 3.93799 7.588 3.84199C7.588 3.74599 7.606 3.65599 7.642 3.57199C7.678 3.48799 7.732 3.40999 7.804 3.33799C7.876 3.26599 7.957 3.21199 8.047 3.17599C8.137 3.13999 8.221 3.12199 8.299 3.12199C8.377 3.12199 8.476 3.14599 8.596 3.19399C8.68 3.22999 8.758 3.28399 8.83 3.35599L14.914 9.43999C15.058 9.58399 15.13 9.75499 15.13 9.95299C15.13 10.151 15.058 10.322 14.914 10.466L8.83 16.55C8.686 16.694 8.518 16.766 8.326 16.766ZM14.41 10.664H1.45C1.246 10.664 1.075 10.595 0.937003 10.457C0.799003 10.319 0.730003 10.151 0.730003 9.95299C0.730003 9.75499 0.802003 9.58399 0.946003 9.43999C1.09 9.29599 1.258 9.22399 1.45 9.22399H14.41C14.602 9.22399 14.77 9.29599 14.914 9.43999C15.058 9.58399 15.13 9.75499 15.13 9.95299C15.13 10.151 15.061 10.319 14.923 10.457C14.785 10.595 14.614 10.664 14.41 10.664Z" fill="#9966FF"/>
</g>
<defs>
<clipPath id="clip0_1_18">
<rect width="17.28" height="18" fill="white" transform="matrix(1 0 0 -1 0.730003 18.98)"/>
</clipPath>
</defs>
</svg>
