<svg width="18" height="19" viewBox="0 0 18 19" fill="none" xmlns="http://www.w3.org/2000/svg">
<g clip-path="url(#clip0_1_531)">
<path d="M5.85679 12.74C5.65279 12.74 5.48479 12.668 5.35279 12.524L0.312785 7.48401C0.156785 7.35201 0.0907854 7.18401 0.114785 6.98001C0.114785 6.80001 0.180785 6.63201 0.312785 6.47601C0.456785 6.35601 0.630785 6.29001 0.834785 6.27801C1.03879 6.26601 1.20079 6.33201 1.32079 6.47601L5.85679 10.994L10.3928 6.47601C10.5248 6.33201 10.6898 6.26601 10.8878 6.27801C11.0858 6.29001 11.2508 6.36201 11.3828 6.49401C11.5148 6.62601 11.5868 6.79101 11.5988 6.98901C11.6108 7.18701 11.5448 7.35201 11.4008 7.48401L6.36079 12.524C6.24079 12.668 6.07279 12.74 5.85679 12.74Z" fill="#0A2540"/>
</g>
<defs>
<clipPath id="clip0_1_531">
<rect width="17.28" height="18" fill="white" transform="matrix(1 0 0 -1 0.109985 18.5)"/>
</clipPath>
</defs>
</svg>
