<svg width="26" height="27" viewBox="0 0 26 27" fill="none" xmlns="http://www.w3.org/2000/svg">
<g clip-path="url(#clip0_1_560)">
<path fill-rule="evenodd" clip-rule="evenodd" d="M0 13.5001C0 6.31985 5.8208 0.5 13 0.5C20.1791 0.5 26 6.31985 26 13.5001C26 15.6338 25.6031 18.0155 24.6629 19.9561C24.4763 20.3413 24.4267 20.7833 24.5623 21.1892L25.9552 25.3578C26.0592 25.6691 25.9788 26.0123 25.7472 26.2448C25.5157 26.4773 25.173 26.5592 24.8615 26.4562L20.6419 25.0618C20.2496 24.9321 19.8233 24.9747 19.4481 25.1476C17.5257 26.033 15.0509 26.4999 13 26.4999C5.82082 26.4999 0 20.6803 0 13.5001ZM13.0003 5.70303C11.5644 5.70303 10.4003 6.86709 10.4003 8.30303V18.7125C10.4003 20.1485 11.5644 21.3125 13.0003 21.3125C14.4363 21.3125 15.6003 20.1485 15.6003 18.7125V8.30303C15.6003 6.86709 14.4363 5.70303 13.0003 5.70303Z" fill="white"/>
</g>
<defs>
<clipPath id="clip0_1_560">
<rect width="26" height="26" fill="white" transform="translate(0 0.5)"/>
</clipPath>
</defs>
</svg>
